#!OML:ASF F:\VICON\USERDATA\INSTALL\rory3\rory3.ASF
:FULLY-SPECIFIED
:DEGREES
83
root -0.032303456640529804 17.733465041982555 31.530116827028266 -4.165781884773924 -0.5869617470725509 -3.5868520027586004
lfemur -2.9729171259686265 -3.9751448903622553 -17.534869991007795
ltibia 59.53110243446004
lfoot 12.71000101459951 -16.12150715515107
ltoes 1.2297461565811392
rfemur -19.656586090263385 5.693516254242799 28.93214187765248
rtibia 33.38673481194446
rfoot -5.566574032630191 -4.349974925340106
rtoes 9.49392505625212
lowerback 1.0 -0.3981632623165942 1.1382860991329609
upperback 0.7763842794464807 -0.2310491732323129 2.52359537923713
thorax -4.495968093354946 -0.12867200371857268 1.729224720994655
lowerneck -15.864898139811089 -2.318249936884012 -2.1037059161662404
upperneck 20.474765537486718 -2.7294927591543345 0.7682682205185402
head 9.236588830314016 -1.4241671895281682 0.22320320503001068
lclavicle -1.177131356212144e-15 -3.0042904729838558e-15
lhumerus -28.943268772136122 0.733178359033047 82.96147329545204
lradius 27.87992148617132
lwrist 4.691229324623987
lhand -27.081686081809174 24.496922364358827
lfingers nan
lthumb -0.4186941841557646 54.827383771089124
rclavicle -1.2683510632103124e-15 -2.9503542927603836e-15
rhumerus -36.47199040214965 -29.1274320892981 -72.34360211468358
rradius 18.633605176158156
rwrist 8.518004373295557
rhand -18.204312790309334 1.0
rfingers nan
rthumb 8.003084486195695 -7.531846834071496
84
root -0.11307509737829968 17.845661413340608 31.720646250877486 -4.410595924739516 -0.35619554827261135 -4.5224652204991385
lfemur -8.82337724579985 -2.6945059333564108 -15.734561504031781
ltibia 66.52221607142818
lfoot 7.266541356390422 -13.77219626198783
ltoes -1.8400642076926945
rfemur -16.03745287312986 6.136680218165779 30.617616715161347
rtibia 32.183207137825526
rfoot -7.130799990270621 -4.982957207420165
rtoes 9.500919217380947
lowerback 1.0 -0.24236493847189228 1.864894865532732
upperback 0.7607293758186671 0.05404356925817422 2.5616878727117576
thorax -4.5858842603242085 0.010780616933110498 1.3713578747270865
lowerneck -15.691473428813808 -2.346251849894675 -2.028967968843597
upperneck 20.351906339772025 -2.805489465183153 0.7742671496403183
head 9.169662633425983 -1.4449118414094304 0.2060519344263274
lclavicle -1.1675959736503432e-15 -3.0309263668676637e-15
lhumerus -29.910312945080367 1.1988353973162695 82.99313168235398
lradius 27.261175430242357
lwrist 4.501701218363304
lhand -27.0760791334807 24.357232671458906
lfingers nan
lthumb -0.402462552998167 54.69337912719056
rclavicle -1.2328620516764816e-15 -2.951544357019107e-15
rhumerus -35.6739471148471 -28.24691719081646 -73.40234411101112
rradius 18.699748619675535
rwrist 8.149517573232098
rhand -18.092291959664806 1.0
rfingers nan
rthumb 8.091280786703582 -7.549996844719629
85
root -0.16027671668288568 17.905934805804645 31.715777721324272 -4.496252248689718 -0.357426856447862 -5.15905827919166
lfemur -13.877013765541033 -1.0673172209840294 -14.49953794985435
ltibia 70.04852160924875
lfoot 0.7880990319902024 -11.39226796998825
ltoes -7.345858254876294
rfemur -12.495582390031107 6.319920052031787 31.966901857800273
rtibia 30.532059062300043
rfoot -9.427950277571583 -5.433726080051775
rtoes 8.542169971870223
lowerback 1.0 0.0019592462706427005 2.29322082416193
upperback 0.7735623472674317 0.38534502821401995 2.487131561909416
thorax -4.646720855967721 0.17736151962381627 1.040001294497875
lowerneck -15.580185587431213 -2.388683057838651 -1.9689713325548546
upperneck 20.219670439707038 -2.901895351363072 0.7956989071120177
head 9.105172816135962 -1.4715340927497775 0.19138368676994072
lclavicle -1.1529187034597197e-15 -3.0579274486149283e-15
lhumerus -30.844727390082767 1.7550881797683757 82.93168909012972
lradius 26.617871866593358
lwrist 4.377483936430027
lhand -27.068336153892595 24.226290453297004
lfingers nan
lthumb -0.3790064650935159 54.596325692190945
rclavicle -1.2187322982951138e-15 -2.9720741165279773e-15
rhumerus -34.605387518166644 -26.98569078576875 -74.73306599302073
rradius 18.945056680162864
rwrist 7.463729741136616
rhand -18.010718307395376 1.0
rfingers nan
rthumb 8.117011422403333 -7.60855788130137
86
root -0.19699394010212867 17.935801553902554 31.792979938764 -4.419856066662637 -0.7298870096666193 -5.570394713471941
lfemur -17.93994184054535 0.5427673355292275 -13.702335035208396
ltibia 70.57212034003356
lfoot -3.529399818242875 -8.227529123279208
ltoes -7.181378132063514
rfemur -9.203556962477691 6.325606606557144 32.769983284064025
rtibia 28.941265925447063
rfoot -11.773438447098652 -5.60388256762698
rtoes 7.3687437361561114
lowerback 1.0 0.28977849298247405 2.745282868377104
upperback 0.8058276173986216 0.7973078156130663 2.3785615750053535
thorax -4.646732896408475 0.37493126333814353 0.6473069836293182
lowerneck -15.542697549752733 -2.4320175505731387 -1.9149320115419222
upperneck 20.06615005809071 -2.9984001851580793 0.8164452906849065
head 9.044084486784506 -1.4985111599415588 0.17524790960684467
lclavicle -1.1017547374267611e-15 -3.0427448006896058e-15
lhumerus -31.72991822482418 2.451741328815326 82.77322576628183
lradius 25.915365136899908
lwrist 4.104834121894844
lhand -27.02857398949745 24.15124892480611
lfingers nan
lthumb -0.347233621710908 54.527150963278096
rclavicle -1.136303166698389e-15 -2.929419107027377e-15
rhumerus -33.358383556668265 -25.350718528762364 -76.23791485757901
rradius 19.425941024347168
rwrist 6.301217200811006
rhand -17.958547697854144 1.0
rfingers nan
rthumb 8.136820492239535 -7.591051445166395
87
root -0.21628369346900955 17.946358468575934 31.70109804234479 -4.078831026363316 -1.0597954529332114 -5.896439272831175
lfemur -21.338209094769617 1.7970430632941872 -13.19688645441697
ltibia 68.56522088351889
lfoot -6.589908220321846 -5.139358024393284
ltoes -6.565258092281818
rfemur -7.1625045103595815 6.051068665421072 33.34640406085938
rtibia 29.03938815946502
rfoot -13.567694036242354 -5.271606322719549
rtoes 6.892110345932746
lowerback 1.0 0.5465997321652991 3.1890766455031514
upperback 0.725260314634525 1.2180000824454937 2.25740056896866
thorax -4.784755491900476 0.5730922956105822 0.24188174916600902
lowerneck -15.57508100176534 -2.4809430622722175 -1.8728267524133386
upperneck 19.882173980337225 -3.097853548958905 0.8506742129704291
head 8.98427119596098 -1.5265462891602417 0.16492799159206972
lclavicle -1.126408352082138e-15 -3.0736980350150812e-15
lhumerus -32.554476053855296 3.311785245804058 82.51588698436464
lradius 25.102494809405208
lwrist 3.638780862035777
lhand -26.97294350588957 24.084571658299804
lfingers nan
lthumb -0.3341514612888935 54.402092098136634
rclavicle -1.0862914284263352e-15 -2.9069453172621246e-15
rhumerus -32.02763379054349 -23.40704633963736 -77.7130991493721
rradius 20.106280078512835
rwrist 4.81840101469429
rhand -17.96671096887046 1.0
rfingers nan
rthumb 8.123500297001609 -7.503839216748039
88
root -0.22565134306146284 17.925739948733444 31.8550518581467 -3.631235765147344 -1.6400394858944494 -6.464379873477503
lfemur -24.545979644899674 2.5353570945499087 -12.722691320789739
ltibia 64.4227421346002
lfoot -8.486772145329448 -1.4929121554056535
ltoes -6.130307568224444
rfemur -5.800674712845657 5.879131058209728 34.1153254601593
rtibia 30.048387319750923
rfoot -14.905596024367137 -4.702208034178428
rtoes 6.926894849489841
lowerback 1.0 0.8483061512464647 3.915864400947546
upperback 0.594068809323715 1.7442095247848481 2.1929982259574463
thorax -4.930883043959905 0.8212452085255812 -0.2866158415705573
lowerneck -15.64471107458076 -2.5340771025900484 -1.8409705780201704
upperneck 19.657592138092088 -3.203509133339735 0.8969440693509598
head 8.920192064817089 -1.5568884654942816 0.15931641925408868
lclavicle -1.1157913533871325e-15 -3.0757706445362955e-15
lhumerus -33.296327765404094 4.334487957868082 82.16273328865819
lradius 24.130654130433754
lwrist 2.9819329111693444
lhand -26.958286021712322 23.940230156327107
lfingers nan
lthumb -0.3773111967785917 54.14342629288416
rclavicle -1.0497449580737676e-15 -2.895116662156461e-15
rhumerus -30.67526590597109 -21.29886575614222 -78.87769964903485
rradius 20.87576114354376
rwrist 3.3112415239596213
rhand -18.02644048389042 1.0
rfingers nan
rthumb 8.071912539307505 -7.359396198261034
89
root -0.22400227866450118 17.87543157439077 32.110325776295305 -3.0951090739196854 -2.2457380379924436 -6.954125792761193
lfemur -27.1519178340734 2.416893547645361 -12.315784860821061
ltibia 58.08618653497488
lfoot -9.029448799854771 1.5945229182317946
ltoes -5.766937667068484
rfemur -4.775871319695291 5.823461189553262 34.68724600748626
rtibia 31.462258359857184
rfoot -15.147268783672274 -4.07254508778192
rtoes 7.2718550575866745
lowerback 1.0 1.1345871261383604 4.62434247989507
upperback 0.4601528958175706 2.2381112747413843 2.1887797702006053
thorax -5.0341207420608205 1.0459628337187812 -0.835897817478308
lowerneck -15.740821481044216 -2.5854949942200407 -1.794779739576119
upperneck 19.423916553747862 -3.3077757494419844 0.9384749119791732
head 8.853770474282795 -1.587421042351751 0.15289823424762
lclavicle -1.062155132505165e-15 -3.0398500745249683e-15
lhumerus -33.91156219005869 5.493684467932669 81.73364721345719
lradius 22.973386111903455
lwrist 2.2260908190536033
lhand -27.016966500243914 23.693672641075338
lfingers nan
lthumb -0.4929188562532415 53.752933054104716
rclavicle -9.705524378916437e-16 -2.8409302144607443e-15
rhumerus -29.372171044732575 -19.30513383620353 -79.65575583769584
rradius 21.663720756253035
rwrist 1.9864369363903744
rhand -18.126658755059214 1.0
rfingers nan
rthumb 8.01136733974606 -7.172852397378289
90
root -0.2033788921125107 17.803464593975114 32.645084350119966 -2.4165244615892743 -2.975193362375091 -7.465533198063801
lfemur -28.720271483163486 1.3704905722323457 -11.59262301292225
ltibia 49.408231574366084
lfoot -8.087051987835144 3.1634068782756035
ltoes -5.8986004620628
rfemur -2.92121895118645 5.920827837905049 35.331079436725275
rtibia 31.703046770643876
rfoot -14.519501138929888 -3.7383776273198115
rtoes 7.408625957253287
lowerback 1.0 1.4352587995805335 5.280273500627492
upperback 0.37720796647672683 2.7028441096788582 2.1912527641071273
thorax -5.052037985400303 1.2604585685629006 -1.2864077666816363
lowerneck -15.854383775931039 -2.63742985170322 -1.7463444055008202
upperneck 19.213601191525843 -3.4177738031011202 0.9799814118700465
head 8.78958126080989 -1.61989149196941 0.14615995249474156
lclavicle -1.0586043095358109e-15 -3.032140642803334e-15
lhumerus -34.39506971993184 6.715717358281951 81.25112961132179
lradius 21.6595038056649
lwrist 1.34642604922493
lhand -27.148775588174566 23.389573902044358
lfingers nan
lthumb -0.6525612333782556 53.33695086575564
rclavicle -8.882475507818178e-16 -2.7742247079656515e-15
rhumerus -28.18288484912223 -17.673551996847834 -80.17266427118425
rradius 22.422767955459
rwrist 0.9094908480058983
rhand -18.23457624660313 1.0
rfingers nan
rthumb 7.912427834074595 -7.053606341551382
